<svg width="32" height="15" viewBox="0 0 32 15" fill="none" xmlns="http://www.w3.org/2000/svg">
<path d="M0.291193 14V0.909091H8.8054V2.89702H2.66264V6.45099H8.36435V8.43892H2.66264V12.0121H8.85653V14H0.291193ZM14.676 14.1726C13.9047 14.1726 13.2143 13.9744 12.605 13.5781C11.9956 13.1818 11.514 12.6065 11.1604 11.8523C10.8067 11.098 10.6298 10.1818 10.6298 9.10369C10.6298 8.01278 10.8088 7.09233 11.1667 6.34233C11.529 5.58807 12.0169 5.01918 12.6305 4.63565C13.2442 4.24787 13.9281 4.05398 14.6824 4.05398C15.2577 4.05398 15.7307 4.15199 16.1014 4.34801C16.4721 4.53977 16.7662 4.77202 16.9835 5.04474C17.2008 5.31321 17.3692 5.56676 17.4885 5.8054H17.5844V0.909091H19.9047V14H17.6291V12.4531H17.4885C17.3692 12.6918 17.1966 12.9453 16.9707 13.2138C16.7449 13.478 16.4466 13.7038 16.0758 13.8913C15.7051 14.0788 15.2385 14.1726 14.676 14.1726ZM15.3216 12.2741C15.8116 12.2741 16.2292 12.142 16.5744 11.8778C16.9196 11.6094 17.1817 11.2365 17.3606 10.7592C17.5396 10.282 17.6291 9.72585 17.6291 9.09091C17.6291 8.45597 17.5396 7.90412 17.3606 7.43537C17.1859 6.96662 16.926 6.60227 16.5808 6.34233C16.2399 6.08239 15.8202 5.95241 15.3216 5.95241C14.806 5.95241 14.3756 6.08665 14.0304 6.35511C13.6852 6.62358 13.4253 6.99432 13.2506 7.46733C13.0758 7.94034 12.9885 8.48153 12.9885 9.09091C12.9885 9.70455 13.0758 10.2521 13.2506 10.7337C13.4295 11.2109 13.6916 11.5881 14.0368 11.8651C14.3862 12.1378 14.8145 12.2741 15.3216 12.2741ZM22.2804 14V4.18182H24.5943V14H22.2804ZM23.4438 2.78835C23.0773 2.78835 22.7619 2.6669 22.4977 2.42401C22.2335 2.17685 22.1014 1.88068 22.1014 1.53551C22.1014 1.18608 22.2335 0.889914 22.4977 0.647016C22.7619 0.399857 23.0773 0.276278 23.4438 0.276278C23.8145 0.276278 24.1298 0.399857 24.3898 0.647016C24.654 0.889914 24.7861 1.18608 24.7861 1.53551C24.7861 1.88068 24.654 2.17685 24.3898 2.42401C24.1298 2.6669 23.8145 2.78835 23.4438 2.78835ZM31.7865 4.18182V5.97159H26.1423V4.18182H31.7865ZM27.5358 1.82955H29.8497V11.0469C29.8497 11.358 29.8965 11.5966 29.9903 11.7628C30.0883 11.9247 30.2162 12.0355 30.3738 12.0952C30.5315 12.1548 30.7062 12.1847 30.898 12.1847C31.0429 12.1847 31.175 12.174 31.2943 12.1527C31.4179 12.1314 31.5116 12.1122 31.5755 12.0952L31.9654 13.9041C31.8419 13.9467 31.665 13.9936 31.4349 14.0447C31.209 14.0959 30.9321 14.1257 30.6039 14.1342C30.0244 14.1513 29.5024 14.0639 29.0379 13.8722C28.5734 13.6761 28.2048 13.3736 27.9321 12.9645C27.6636 12.5554 27.5315 12.044 27.5358 11.4304V1.82955Z" fill="#242424"/>
</svg>
