<svg width="55" height="15" viewBox="0 0 55 15" fill="none" xmlns="http://www.w3.org/2000/svg">
<path d="M4.72727 14H0.291193V0.909091H4.81676C6.11648 0.909091 7.23296 1.17116 8.16619 1.69531C9.10369 2.2152 9.82386 2.96307 10.3267 3.93892C10.8295 4.91477 11.081 6.08239 11.081 7.44176C11.081 8.8054 10.8274 9.97727 10.3203 10.9574C9.81747 11.9375 9.09091 12.6896 8.14062 13.2138C7.1946 13.7379 6.05682 14 4.72727 14ZM2.66264 11.9482H4.61222C5.52415 11.9482 6.2848 11.782 6.89418 11.4496C7.50355 11.1129 7.96165 10.6122 8.26847 9.94744C8.57528 9.27841 8.72869 8.44318 8.72869 7.44176C8.72869 6.44034 8.57528 5.60937 8.26847 4.94886C7.96165 4.28409 7.50781 3.78764 6.90696 3.45952C6.31037 3.12713 5.56889 2.96094 4.68253 2.96094H2.66264V11.9482ZM17.4885 14.1918C16.5041 14.1918 15.654 13.9872 14.9381 13.5781C14.2264 13.1648 13.6788 12.581 13.2953 11.8267C12.9118 11.0682 12.72 10.1754 12.72 9.14844C12.72 8.13849 12.9118 7.25213 13.2953 6.48935C13.6831 5.7223 14.2243 5.12571 14.9189 4.69957C15.6135 4.26918 16.4295 4.05398 17.367 4.05398C17.9721 4.05398 18.5432 4.15199 19.0801 4.34801C19.6213 4.53977 20.0986 4.83807 20.5119 5.2429C20.9295 5.64773 21.2577 6.16335 21.4963 6.78977C21.7349 7.41193 21.8542 8.15341 21.8542 9.0142V9.72372H13.8067V8.16406H19.6362C19.6319 7.72088 19.5361 7.3267 19.3486 6.98153C19.1611 6.6321 18.899 6.35724 18.5623 6.15696C18.23 5.95668 17.8422 5.85653 17.399 5.85653C16.926 5.85653 16.5105 5.97159 16.1525 6.2017C15.7946 6.42756 15.5155 6.72585 15.3152 7.09659C15.1192 7.46307 15.019 7.86577 15.0148 8.30469V9.66619C15.0148 10.2372 15.1192 10.7273 15.328 11.1364C15.5368 11.5412 15.8287 11.8523 16.2037 12.0696C16.5787 12.2827 17.0176 12.3892 17.5204 12.3892C17.8571 12.3892 18.1618 12.3423 18.4345 12.2486C18.7072 12.1506 18.9437 12.0078 19.144 11.8203C19.3443 11.6328 19.4956 11.4006 19.5979 11.1236L21.7584 11.3665C21.622 11.9375 21.3621 12.4361 20.9785 12.8622C20.5993 13.2841 20.1135 13.6122 19.5212 13.8466C18.9288 14.0767 18.2513 14.1918 17.4885 14.1918ZM26.0357 0.909091V14H23.7218V0.909091H26.0357ZM32.6718 14.1918C31.6874 14.1918 30.8372 13.9872 30.1213 13.5781C29.4097 13.1648 28.8621 12.581 28.4786 11.8267C28.0951 11.0682 27.9033 10.1754 27.9033 9.14844C27.9033 8.13849 28.0951 7.25213 28.4786 6.48935C28.8664 5.7223 29.4076 5.12571 30.1022 4.69957C30.7968 4.26918 31.6128 4.05398 32.5503 4.05398C33.1554 4.05398 33.7264 4.15199 34.2634 4.34801C34.8046 4.53977 35.2818 4.83807 35.6952 5.2429C36.1128 5.64773 36.4409 6.16335 36.6796 6.78977C36.9182 7.41193 37.0375 8.15341 37.0375 9.0142V9.72372H28.9899V8.16406H34.8195C34.8152 7.72088 34.7193 7.3267 34.5318 6.98153C34.3443 6.6321 34.0823 6.35724 33.7456 6.15696C33.4132 5.95668 33.0255 5.85653 32.5823 5.85653C32.1093 5.85653 31.6938 5.97159 31.3358 6.2017C30.9779 6.42756 30.6987 6.72585 30.4985 7.09659C30.3024 7.46307 30.2023 7.86577 30.198 8.30469V9.66619C30.198 10.2372 30.3024 10.7273 30.5112 11.1364C30.7201 11.5412 31.012 11.8523 31.387 12.0696C31.762 12.2827 32.2009 12.3892 32.7037 12.3892C33.0404 12.3892 33.3451 12.3423 33.6178 12.2486C33.8905 12.1506 34.127 12.0078 34.3273 11.8203C34.5276 11.6328 34.6789 11.4006 34.7811 11.1236L36.9416 11.3665C36.8053 11.9375 36.5453 12.4361 36.1618 12.8622C35.7826 13.2841 35.2968 13.6122 34.7044 13.8466C34.1121 14.0767 33.4345 14.1918 32.6718 14.1918ZM43.8078 4.18182V5.97159H38.1636V4.18182H43.8078ZM39.5571 1.82955H41.871V11.0469C41.871 11.358 41.9179 11.5966 42.0116 11.7628C42.1096 11.9247 42.2375 12.0355 42.3951 12.0952C42.5528 12.1548 42.7275 12.1847 42.9193 12.1847C43.0642 12.1847 43.1963 12.174 43.3156 12.1527C43.4392 12.1314 43.5329 12.1122 43.5969 12.0952L43.9868 13.9041C43.8632 13.9467 43.6863 13.9936 43.4562 14.0447C43.2304 14.0959 42.9534 14.1257 42.6253 14.1342C42.0457 14.1513 41.5237 14.0639 41.0592 13.8722C40.5947 13.6761 40.2261 13.3736 39.9534 12.9645C39.6849 12.5554 39.5528 12.044 39.5571 11.4304V1.82955ZM49.8941 14.1918C48.9097 14.1918 48.0596 13.9872 47.3437 13.5781C46.632 13.1648 46.0844 12.581 45.7009 11.8267C45.3174 11.0682 45.1256 10.1754 45.1256 9.14844C45.1256 8.13849 45.3174 7.25213 45.7009 6.48935C46.0887 5.7223 46.6299 5.12571 47.3245 4.69957C48.0191 4.26918 48.8352 4.05398 49.7727 4.05398C50.3778 4.05398 50.9488 4.15199 51.4857 4.34801C52.0269 4.53977 52.5042 4.83807 52.9175 5.2429C53.3352 5.64773 53.6633 6.16335 53.9019 6.78977C54.1406 7.41193 54.2599 8.15341 54.2599 9.0142V9.72372H46.2123V8.16406H52.0418C52.0376 7.72088 51.9417 7.3267 51.7542 6.98153C51.5667 6.6321 51.3046 6.35724 50.968 6.15696C50.6356 5.95668 50.2478 5.85653 49.8046 5.85653C49.3316 5.85653 48.9161 5.97159 48.5582 6.2017C48.2002 6.42756 47.9211 6.72585 47.7208 7.09659C47.5248 7.46307 47.4246 7.86577 47.4204 8.30469V9.66619C47.4204 10.2372 47.5248 10.7273 47.7336 11.1364C47.9424 11.5412 48.2343 11.8523 48.6093 12.0696C48.9843 12.2827 49.4232 12.3892 49.9261 12.3892C50.2627 12.3892 50.5674 12.3423 50.8401 12.2486C51.1129 12.1506 51.3494 12.0078 51.5496 11.8203C51.7499 11.6328 51.9012 11.4006 52.0035 11.1236L54.164 11.3665C54.0276 11.9375 53.7677 12.4361 53.3842 12.8622C53.0049 13.2841 52.5191 13.6122 51.9268 13.8466C51.3344 14.0767 50.6569 14.1918 49.8941 14.1918Z" fill="#242424"/>
</svg>
